<?xml version="1.0" encoding="utf-8"?>
<!-- Generator: Adobe Illustrator 25.4.1, SVG Export Plug-In . SVG Version: 6.00 Build 0)  -->
<svg version="1.1" id="Layer_1" xmlns="http://www.w3.org/2000/svg" xmlns:xlink="http://www.w3.org/1999/xlink" x="0px" y="0px"
	 viewBox="0 0 1080 529.99" style="enable-background:new 0 0 1080 529.99;" xml:space="preserve">
<style type="text/css">
	.st0{fill:#FFFFFF;}
	.st1{fill:none;stroke:#FFFFFF;stroke-width:4;stroke-miterlimit:10;}
	.st2{fill:none;}
	.st3{fill:#D71F46;}
</style>
<g>
	<path class="st2" d="M869.17,458.06c-0.16-1-0.26-2.01-0.29-3.05c-1.08,1.16-2.26,2.22-3.55,3.15
		C866.59,458.15,867.89,458.09,869.17,458.06z"/>
	<path class="st2" d="M394.27,188.09h-17.13v30.08h17.13c7.99,0,10.05-4.7,10.05-11.04v-7.99
		C404.32,192.79,402.27,188.09,394.27,188.09z"/>
	<path class="st2" d="M892.98,444.16c-5.55,0-10.07,4.52-10.07,10.07c0,1.06,0.21,2.07,0.52,3.04c6.3-0.55,12.85-1.36,19.55-2.37
		c0.01-0.22,0.07-0.44,0.07-0.66C903.05,448.68,898.53,444.16,892.98,444.16z"/>
	<path class="st2" d="M851.2,448.7c5.55,0,10.07-4.52,10.07-10.07c0-5.55-4.52-10.07-10.07-10.07c-5.55,0-10.07,4.52-10.07,10.07
		C841.13,444.19,845.65,448.7,851.2,448.7z"/>
	<path class="st2" d="M916.47,448.75c0.28,1.22,0.47,2.47,0.56,3.75c1.53-0.29,3.08-0.64,4.62-0.96
		C919.8,450.82,918.07,449.88,916.47,448.75z"/>
	<path class="st2" d="M714.22,191.14h-5.71c-1.83,0-3.2,1.17-4.34,4l-10.74,35.72h35.86l-10.74-35.72
		C717.42,192.32,716.05,191.14,714.22,191.14z"/>
	<path class="st2" d="M102.42,395.57h-5.71c-1.83,0-3.2,1.17-4.34,4l-10.74,35.72h35.86l-10.74-35.72
		C105.62,396.74,104.25,395.57,102.42,395.57z"/>
	<path class="st2" d="M828.37,377.39c5.55,0,10.07-4.52,10.07-10.07c0-5.55-4.52-10.07-10.07-10.07c-5.55,0-10.07,4.52-10.07,10.07
		C818.3,372.87,822.82,377.39,828.37,377.39z"/>
	<path class="st2" d="M993.45,429.08c0,0.12-0.02,0.24-0.02,0.36c30.11-13.04,48.14-27.09,51.18-36.1c0.1-2.02,0.11-3.52,0.11-4.45
		c-1.9-4.8-13.14-9.92-34.76-10.91c-0.32-0.01-0.66-0.01-0.98-0.02c-4.18,12.16-10.38,27.98-17.14,42.53
		C992.87,423.16,993.45,426.05,993.45,429.08z"/>
	<path class="st2" d="M970.39,453.16c-8.82,2.91-17.89,5.55-27.03,7.88c-10.23,2.6-20.36,4.74-30.24,6.46
		c-12.8,2.22-25.11,3.67-36.62,4.32c-4.62,0.26-9.14,0.44-13.46,0.44c-3.02,0-5.95-0.07-8.8-0.2c-6.12-0.28-11.65-0.88-16.66-1.76
		c20.25,21.93,58.01,48,116.55,33.13c58.48-14.86,79.24-55.74,86.59-84.67c-13.8,10.96-34.19,21.27-57.28,29.84
		C979.18,450.19,974.81,451.7,970.39,453.16z"/>
	<circle class="st2" cx="930.41" cy="429.08" r="10.07"/>
	<path class="st2" d="M875.3,437.85c4.41-4.76,10.7-7.76,17.69-7.76c5.19,0,10,1.67,13.94,4.47c-0.41-1.76-0.65-3.59-0.65-5.48
		c0-13.31,10.83-24.14,24.14-24.14c7.98,0,15.05,3.91,19.45,9.9c2.43-3.31,5.68-5.98,9.46-7.71c-0.61-6.24-1.32-15.17-1.68-25.36
		c-10.6,1.74-21.56,4-32.67,6.83c-6.36,1.62-12.56,3.39-18.64,5.26c0.81,2.41,1.27,4.99,1.27,7.68c0,13.31-10.83,24.14-24.14,24.14
		c-9.89,0-18.4-5.98-22.12-14.51c-2.41,1.17-4.74,2.36-7,3.56C865.9,416.23,874.91,425.96,875.3,437.85z"/>
	<path class="st2" d="M821.85,449.5c2.14,2.03,6.02,3.98,11.67,5.52c-4-4.31-6.46-10.06-6.46-16.39c0-2.06,0.29-4.05,0.77-5.96
		c-5.88,5.63-8.34,10.31-7.97,13.34C820.27,446.78,820.92,447.94,821.85,449.5z"/>
	<path class="st2" d="M969.31,419.01c-5.55,0-10.07,4.52-10.07,10.07c0,5.21,3.99,9.45,9.07,9.97c2.77-0.93,5.47-1.88,8.1-2.84
		c1.83-1.82,2.97-4.35,2.97-7.13C979.38,423.53,974.86,419.01,969.31,419.01z"/>
	<path class="st2" d="M949.86,443.32c-0.46,0.63-0.95,1.24-1.47,1.82c0.79-0.22,1.57-0.44,2.35-0.66
		C950.43,444.11,950.15,443.71,949.86,443.32z"/>
	<path class="st2" d="M883.45,391.46c-5.55,0-10.07,4.52-10.07,10.07c0,1.37,0.28,2.68,0.78,3.88c1.52,3.63,5.11,6.19,9.29,6.19
		c5.55,0,10.07-4.52,10.07-10.07c0-1.17-0.24-2.27-0.61-3.31C891.53,394.3,887.83,391.46,883.45,391.46z"/>
	<path class="st2" d="M971.62,379.79c0.29,9.47,0.92,18.32,1.63,25.5c2.99,0.49,5.8,1.53,8.32,3.03
		c5.15-11.29,9.27-21.37,12.53-30.35c1.84-5.06,3.4-9.77,4.72-14.16c9.63-31.94,6.52-46.74,2.83-53.32
		c-3.01-5.36-7.16-6.42-8.17-6.61c-3.83,0.14-6.94,1.72-9.74,4.96c-9.07,10.46-11.98,33.91-12.25,56.83
		C971.42,370.42,971.48,375.18,971.62,379.79z"/>
	<path class="st0" d="M46.18,105.49c0,3.56,1.52,5.12,4.98,5.12h22.4c3.46,0,4.98-1.56,4.98-5.12V35.62h20.33
		c3.46,0,4.98-1.56,4.98-5.12V13.28c0-3.56-1.52-5.12-4.98-5.12H25.85c-3.46,0-4.98,1.57-4.98,5.12V30.5c0,3.56,1.52,5.12,4.98,5.12
		h20.33V105.49z"/>
	<path class="st0" d="M198.13,110.61c3.46,0,4.97-1.56,4.97-5.12V13.28c0-3.56-1.52-5.12-4.97-5.12H176.7
		c-3.46,0-4.98,1.57-4.98,5.12v30.88h-23.09V13.28c0-3.56-1.52-5.12-4.98-5.12h-21.43c-3.46,0-4.98,1.57-4.98,5.12v92.21
		c0,3.56,1.52,5.12,4.98,5.12h21.43c3.46,0,4.98-1.56,4.98-5.12V73.9h23.09v31.59c0,3.56,1.52,5.12,4.98,5.12H198.13z"/>
	<path class="st0" d="M227.17,110.61h64.16c3.46,0,4.98-1.56,4.98-5.12V88.84c0-3.56-1.52-5.12-4.98-5.12h-38.16V71.48h26.96
		c3.46,0,4.98-1.56,4.98-5.12V51.13c0-3.56-1.52-5.12-4.98-5.12h-26.96V35.05h38.16c3.46,0,4.98-1.56,4.98-5.12V13.28
		c0-3.56-1.52-5.12-4.98-5.12h-64.16c-3.46,0-4.98,1.57-4.98,5.12v92.21C222.19,109.04,223.71,110.61,227.17,110.61z"/>
	<path class="st0" d="M96.25,191.14h45.91c5.71,0,8.22-2.59,8.22-8.46v-28.44c0-5.87-2.51-8.46-8.22-8.46H86.43
		c-38.37,0-56.18,15.27-56.18,48.17v73.08c0,32.67,17.82,47.94,56.18,47.94h55.73c5.71,0,8.22-2.58,8.22-8.46v-27.96
		c0-5.87-2.51-8.46-8.22-8.46H96.25c-9.59,0-13.93-3.52-13.93-11.28v-55.93C82.32,194.9,86.66,191.14,96.25,191.14z"/>
	<path class="st0" d="M298.59,306.52v-27.49c0-5.87-2.51-8.46-8.22-8.46h-63.04v-20.21h44.53c5.71,0,8.22-2.58,8.22-8.46v-25.15
		c0-5.87-2.51-8.46-8.22-8.46h-44.53v-18.1h63.04c5.71,0,8.22-2.59,8.22-8.46v-27.49c0-5.87-2.51-8.46-8.22-8.46H184.4
		c-5.71,0-8.22,2.59-8.22,8.46v152.27c0,5.88,2.51,8.46,8.22,8.46h105.97C296.08,314.98,298.59,312.4,298.59,306.52z"/>
	<path class="st0" d="M442.01,222.63c9.59-4.23,12.79-13.63,12.79-26.79v-10.81c0-23.27-10.74-39.24-44.99-39.24h-76.05
		c-5.71,0-8.22,2.59-8.22,8.46v152.27c0,5.88,2.51,8.46,8.22,8.46h35.17c5.71,0,8.22-2.58,8.22-8.46v-46.06h31.98
		c6.39,0,8.68,3.05,8.68,10.1v35.95c0,5.88,2.51,8.46,8.22,8.46h35.4c5.71,0,8.22-2.58,8.22-8.46v-49.82
		C469.64,236.97,458.68,224.51,442.01,222.63z M404.32,207.12c0,6.34-2.06,11.04-10.05,11.04h-17.13v-30.08h17.13
		c7.99,0,10.05,4.7,10.05,11.04V207.12z"/>
	<path class="st0" d="M503.43,314.98H609.4c5.71,0,8.22-2.58,8.22-8.46v-27.49c0-5.87-2.51-8.46-8.22-8.46h-63.04v-20.21h44.53
		c5.71,0,8.22-2.58,8.22-8.46v-25.15c0-5.87-2.51-8.46-8.22-8.46h-44.53v-18.1h63.04c5.71,0,8.22-2.59,8.22-8.46v-27.49
		c0-5.87-2.51-8.46-8.22-8.46H503.43c-5.71,0-8.22,2.59-8.22,8.46v152.27C495.21,312.4,497.72,314.98,503.43,314.98z"/>
	<path class="st0" d="M754.42,153.55c-1.82-5.41-5.48-7.76-11.42-7.76h-61.44c-6.17,0-9.82,2.35-11.65,7.76l-19.87,53.34
		c-6.17,16.45-8.91,28.2-8.91,37.6v62.04c0,5.88,2.51,8.46,8.22,8.46h33.57c5.71,0,8.22-2.58,8.22-8.46v-32.9h40.43v32.9
		c0,5.88,2.74,8.46,8.91,8.46h34.49c5.71,0,8.22-2.58,8.22-8.46v-62.04c0-9.4-2.74-21.15-8.9-37.6L754.42,153.55z M693.44,230.86
		l10.74-35.72c1.14-2.82,2.51-4,4.34-4h5.71c1.83,0,3.2,1.17,4.34,4l10.74,35.72H693.44z"/>
	<path class="st0" d="M819.49,314.98h116.25c5.71,0,8.22-2.58,8.22-8.46V232.5c0-5.87-2.51-8.46-8.22-8.46h-33.12
		c-5.71,0-8.22,2.58-8.22,8.46v38.07h-31.29V154.25c0-5.87-2.51-8.46-8.22-8.46h-35.4c-5.71,0-8.22,2.59-8.22,8.46v152.27
		C811.27,312.4,813.78,314.98,819.49,314.98z"/>
	<path class="st0" d="M142.61,357.97c-1.82-5.4-5.48-7.75-11.42-7.75H69.76c-6.17,0-9.82,2.35-11.65,7.75l-19.87,53.34
		c-6.17,16.45-8.91,28.2-8.91,37.6v62.04c0,5.88,2.51,8.46,8.22,8.46h33.57c5.71,0,8.22-2.58,8.22-8.46v-32.9h40.43v32.9
		c0,5.88,2.74,8.46,8.91,8.46h34.49c5.71,0,8.22-2.58,8.22-8.46v-62.04c0-9.4-2.74-21.15-8.9-37.6L142.61,357.97z M81.63,435.28
		l10.74-35.72c1.14-2.82,2.51-4,4.34-4h5.71c1.83,0,3.2,1.17,4.34,4l10.74,35.72H81.63z"/>
	<path class="st0" d="M301.33,350.22h-97.29c-5.71,0-8.22,2.58-8.22,8.46v28.43c0,5.87,2.51,8.46,8.22,8.46h22.61v78.96h-22.61
		c-5.71,0-8.22,2.59-8.22,8.46v27.96c0,5.88,2.51,8.46,8.22,8.46h97.29c5.71,0,8.22-2.58,8.22-8.46v-27.96
		c0-5.87-2.51-8.46-8.22-8.46h-22.15v-78.96h22.15c5.71,0,8.22-2.59,8.22-8.46v-28.43C309.55,352.8,307.04,350.22,301.33,350.22z"/>
	<path class="st0" d="M425.56,414.37l-34.03-4.7c-3.89-0.47-6.17-3.29-6.17-7.52c0-4.23,2.28-7.05,6.17-7.05h53.22
		c5.71,0,8.22-2.58,8.22-8.46v-27.96c0-5.87-2.51-8.46-8.22-8.46H380.8c-29.69,0-47.28,14.57-47.28,41.36v24.68
		c0,26.32,13.93,35.72,35.4,39.01l34.26,4.94c3.89,0.47,5.94,2.58,5.94,7.99c0,3.76-2.05,6.82-5.94,6.82h-61.44
		c-5.71,0-8.22,2.59-8.22,8.46v27.49c0,5.88,2.51,8.46,8.22,8.46h72.17c29.46,0,47.28-14.57,47.28-41.36v-24.67
		C461.19,427.06,447.03,417.66,425.56,414.37z"/>
	<path class="st0" d="M610.54,428.47h-33.12c-5.71,0-8.22,2.58-8.22,8.46v38.07h-31.29V358.67c0-5.87-2.51-8.46-8.22-8.46h-35.4
		c-5.71,0-8.22,2.58-8.22,8.46v152.27c0,5.88,2.51,8.46,8.22,8.46h116.25c5.71,0,8.22-2.58,8.22-8.46v-74.02
		C618.77,431.05,616.26,428.47,610.54,428.47z"/>
	<path class="st0" d="M758.98,350.22H653.01c-5.71,0-8.22,2.58-8.22,8.46v152.27c0,5.88,2.51,8.46,8.22,8.46h105.97
		c5.71,0,8.22-2.58,8.22-8.46v-27.49c0-5.87-2.51-8.46-8.22-8.46h-63.04v-20.21h44.53c5.71,0,8.22-2.58,8.22-8.46v-25.15
		c0-5.87-2.51-8.46-8.22-8.46h-44.53v-18.1h63.04c5.71,0,8.22-2.58,8.22-8.46v-27.5C767.21,352.8,764.69,350.22,758.98,350.22z"/>
	<path class="st0" d="M1058.56,385.96c-3.22-12.69-18.86-20.21-45.21-21.86c7.83-27.68,7.91-48.22,0.13-61.25
		c-7.16-12-18.02-12.97-19.23-13.04l-0.24-0.02l-0.24,0c-8.01,0.08-15.16,3.47-20.67,9.82c-10.26,11.83-15.53,34.7-15.69,67.94
		c-11.65,1.84-23.72,4.32-35.92,7.42c-8.25,2.09-16.3,4.41-24.09,6.91c-3.94-2.81-8.75-4.48-13.95-4.48
		c-11.53,0-21.18,8.12-23.56,18.94c-7.98,3.67-15.4,7.5-21.97,11.46c-24.02,14.51-34.95,29.12-31.62,42.24
		c0.81,3.21,2.43,6.08,4.8,8.62c11.59,17.93,47.07,63.18,110.04,63.18c11.26,0,23.41-1.45,36.45-4.76
		c86.09-21.87,98.97-96.37,100.86-121.35C1059.29,392.46,1059.38,389.19,1058.56,385.96z M1009.96,377.99
		c21.61,0.99,32.86,6.11,34.76,10.91c0.01,0.93-0.01,2.43-0.11,4.45c-3.04,9.01-21.07,23.06-51.18,36.1c0-0.12,0.02-0.24,0.02-0.36
		c0-3.03-0.58-5.91-1.6-8.58c6.75-14.55,12.95-30.37,17.14-42.53C1009.31,377.98,1009.65,377.97,1009.96,377.99z M917.03,452.5
		c-0.09-1.28-0.28-2.53-0.56-3.75c1.6,1.13,3.33,2.07,5.18,2.8C920.11,451.86,918.56,452.21,917.03,452.5z M883.43,457.26
		c-0.31-0.96-0.52-1.97-0.52-3.04c0-5.55,4.52-10.07,10.07-10.07c5.55,0,10.07,4.52,10.07,10.07c0,0.23-0.05,0.44-0.07,0.66
		C896.28,455.91,889.73,456.72,883.43,457.26z M851.2,428.56c5.55,0,10.07,4.52,10.07,10.07c0,5.55-4.52,10.07-10.07,10.07
		c-5.55,0-10.07-4.52-10.07-10.07C841.13,433.08,845.65,428.56,851.2,428.56z M868.88,455.01c0.03,1.03,0.13,2.05,0.29,3.05
		c-1.28,0.04-2.59,0.09-3.84,0.1C866.62,457.23,867.8,456.17,868.88,455.01z M930.41,439.15c-5.55,0-10.07-4.52-10.07-10.07
		c0-5.55,4.52-10.07,10.07-10.07c5.55,0,10.07,4.52,10.07,10.07C940.48,434.63,935.96,439.15,930.41,439.15z M949.86,443.32
		c0.29,0.39,0.57,0.79,0.88,1.16c-0.78,0.22-1.56,0.44-2.35,0.66C948.91,444.55,949.4,443.95,949.86,443.32z M968.31,439.04
		c-5.08-0.51-9.07-4.76-9.07-9.97c0-5.55,4.52-10.07,10.07-10.07c5.55,0,10.07,4.52,10.07,10.07c0,2.78-1.14,5.31-2.97,7.13
		C973.78,437.17,971.07,438.11,968.31,439.04z M983.73,308.82c2.8-3.23,5.91-4.82,9.74-4.96c1.01,0.19,5.16,1.25,8.17,6.61
		c3.69,6.58,6.8,21.38-2.83,53.32c-1.32,4.39-2.89,9.1-4.72,14.16c-3.26,8.98-7.38,19.06-12.53,30.35
		c-2.52-1.49-5.32-2.53-8.32-3.03c-0.71-7.19-1.34-16.03-1.63-25.5c-0.14-4.61-0.19-9.36-0.13-14.14
		C971.76,342.73,974.66,319.29,983.73,308.82z M893.52,401.53c0,5.55-4.52,10.07-10.07,10.07c-4.18,0-7.77-2.56-9.29-6.19
		c-0.5-1.19-0.78-2.5-0.78-3.88c0-5.55,4.52-10.07,10.07-10.07c4.38,0,8.08,2.83,9.46,6.75
		C893.28,399.26,893.52,400.36,893.52,401.53z M861.33,411.16c3.73,8.53,12.23,14.51,22.12,14.51c13.31,0,24.14-10.83,24.14-24.14
		c0-2.69-0.46-5.26-1.27-7.68c6.08-1.86,12.28-3.64,18.64-5.26c11.11-2.82,22.07-5.09,32.67-6.83c0.36,10.19,1.08,19.12,1.68,25.36
		c-3.78,1.73-7.02,4.39-9.46,7.71c-4.4-5.99-11.47-9.9-19.45-9.9c-13.31,0-24.14,10.83-24.14,24.14c0,1.89,0.24,3.71,0.65,5.48
		c-3.94-2.8-8.75-4.47-13.94-4.47c-6.99,0-13.27,3-17.69,7.76c-0.38-11.89-9.39-21.63-20.97-23.13
		C856.59,413.52,858.91,412.33,861.33,411.16z M827.83,432.68c-0.49,1.91-0.77,3.9-0.77,5.96c0,6.33,2.47,12.08,6.46,16.39
		c-5.66-1.54-9.53-3.49-11.67-5.52c-0.93-1.55-1.58-2.72-1.98-3.48C819.49,442.99,821.95,438.31,827.83,432.68z M954.13,503.44
		c-58.53,14.87-96.3-11.2-116.55-33.13c5.01,0.88,10.55,1.48,16.66,1.76c2.85,0.13,5.78,0.2,8.8,0.2c4.32,0,8.84-0.18,13.46-0.44
		c11.5-0.66,23.82-2.1,36.62-4.32c9.88-1.72,20.01-3.86,30.24-6.46c9.14-2.32,18.21-4.97,27.03-7.88c4.42-1.46,8.79-2.97,13.05-4.56
		c23.08-8.57,43.48-18.88,57.28-29.84C1033.37,447.7,1012.61,488.58,954.13,503.44z"/>
	<path class="st0" d="M828.37,391.46c13.31,0,24.14-10.83,24.14-24.14s-10.83-24.14-24.14-24.14c-13.31,0-24.14,10.83-24.14,24.14
		S815.06,391.46,828.37,391.46z M828.37,357.25c5.55,0,10.07,4.52,10.07,10.07c0,5.55-4.52,10.07-10.07,10.07
		c-5.55,0-10.07-4.52-10.07-10.07C818.3,361.77,822.82,357.25,828.37,357.25z"/>
</g>
</svg>
