<svg id="Layer_1" data-name="Layer 1" xmlns="http://www.w3.org/2000/svg" viewBox="0 0 259.25 246.17"><defs><style>.cls-1{fill:#d71f46;}</style></defs><path class="cls-1" d="M72.1,122.68a10.07,10.07,0,0,0,19.36-3.88,9.86,9.86,0,0,0-.61-3.31,10,10,0,1,0-18.75,7.19Zm-23,43.3a10.07,10.07,0,1,0-10.07-10.07A10.08,10.08,0,0,0,49.14,166Zm-17.68,6.31A23.86,23.86,0,0,1,25.77,150c-5.88,5.63-8.34,10.31-8,13.34.41.76,1.06,1.93,2,3.48C21.93,168.8,25.8,170.75,31.46,172.29Zm139.72-49.73a23.88,23.88,0,0,1,8.32,3c5.15-11.3,9.27-21.38,12.53-30.36,1.84-5.06,3.4-9.77,4.72-14.16,9.63-31.94,6.53-46.74,2.83-53.32-3-5.36-7.15-6.42-8.17-6.61a12.92,12.92,0,0,0-9.74,5c-9.07,10.46-12,33.9-12.25,56.82-.06,4.78,0,9.53.13,14.14C169.84,106.53,170.48,115.37,171.18,122.56Zm-4.94,33.76c2.77-.93,5.48-1.88,8.11-2.84a10.1,10.1,0,1,0-8.11,2.84Zm-37.89.1a10.07,10.07,0,1,0-10.07-10.07A10.08,10.08,0,0,0,128.35,156.42Zm-24.14-10.07a24.11,24.11,0,0,1,43.59-14.24,24.28,24.28,0,0,1,9.46-7.71c-.61-6.23-1.33-15.16-1.69-25.36-10.6,1.74-21.56,4-32.67,6.83-6.37,1.62-12.57,3.4-18.64,5.26a24.12,24.12,0,0,1-45,17.3c-2.42,1.17-4.74,2.36-7,3.56a24.16,24.16,0,0,1,21,23.13,24,24,0,0,1,31.62-3.29A24.1,24.1,0,0,1,104.21,146.35ZM35.52,187.58c20.25,21.93,58,48,116.55,33.13S231.31,165,238.66,136c-13.8,11-34.19,21.27-57.28,29.84-4.26,1.58-8.63,3.1-13,4.56-8.82,2.9-17.89,5.55-27,7.87-10.23,2.6-20.36,4.75-30.24,6.46a321.81,321.81,0,0,1-36.61,4.33c-4.62.26-9.14.44-13.46.44q-4.53,0-8.8-.2A131.17,131.17,0,0,1,35.52,187.58ZM101,171.5a10.07,10.07,0,1,0-20.14,0,9.89,9.89,0,0,0,.52,3c6.3-.55,12.85-1.36,19.55-2.38C100.94,171.94,101,171.73,101,171.5ZM256.5,103.24a19.56,19.56,0,0,1-.11,9.76c-1.88,25-14.76,99.47-100.85,121.35a148,148,0,0,1-36.46,4.76c-63,0-98.45-45.25-110-63.18a19.53,19.53,0,0,1-4.8-8.62c-3.33-13.12,7.6-27.73,31.62-42.24a221.73,221.73,0,0,1,22-11.46A24.07,24.07,0,0,1,95.34,99.14c7.79-2.5,15.85-4.81,24.09-6.91,12.2-3.1,24.28-5.58,35.92-7.42.16-33.23,5.43-56.1,15.69-67.93a27.11,27.11,0,0,1,20.67-9.82h.48c1.21.07,12.07,1,19.23,13.05,7.78,13,7.69,33.57-.13,61.25C237.64,83,253.28,90.55,256.5,103.24Zm-13.95,7.38c.1-2,.12-3.52.11-4.45-1.9-4.8-13.14-9.92-34.76-10.91-.31,0-.66,0-1,0-4.19,12.16-10.39,28-17.14,42.53a24,24,0,0,1,1.6,8.58c0,.12,0,.24,0,.37C221.48,133.68,239.51,119.62,242.55,110.62Zm-96.23,51.79,2.36-.66c-.31-.37-.59-.77-.88-1.16A21.38,21.38,0,0,1,146.32,162.41ZM115,169.78c1.53-.3,3.08-.65,4.62-1a23.76,23.76,0,0,1-5.18-2.8A24.33,24.33,0,0,1,115,169.78Zm-47.86,5.55a23.53,23.53,0,0,1-.29-3,25.31,25.31,0,0,1-3.55,3.15C64.52,175.42,65.83,175.37,67.11,175.33Z"/><path class="cls-1" d="M26.31,94.66A10.07,10.07,0,1,0,16.24,84.6,10.08,10.08,0,0,0,26.31,94.66Zm0-34.21A24.15,24.15,0,1,1,2.17,84.6,24.17,24.17,0,0,1,26.31,60.45Z"/></svg>